# xmcd
#
# Track frame offsets:
#	150
#	19024
#	35414
#	49194
#	79131
#	100904
#	124991
#	141414
#	152611
#	203944
#	224104
#	246819
#	264374
#
# Disc length: 3829 seconds
#
# Revision: 1
# Processed by: cddbd v1.4PL0 Copyright (c) Steve Scherf et al.
# Submitted via: audiograbber 1.80.04
#
DISCID=bd0ef30d
DTITLE=Monty Turnbull - Misfits And Fools
DYEAR=1900
DGENRE=Blues
TTITLE0=Misfits And Fools
TTITLE1=Later Somehow
TTITLE2=Can't Hold Out (live)
TTITLE3=Almost Cut My Hair
TTITLE4=In The Morning
TTITLE5=Leaving Town Tomorrow
TTITLE6=Cheatin' On You
TTITLE7=Fat Ass Blonde Little Rich Girl (live)
TTITLE8=It's A Man's World (live)
TTITLE9=The Debt
TTITLE10=Some Kind Of Wonderful (live)
TTITLE11=Cast Iron Arm (live)
TTITLE12=Don't Wake Me
EXTD=
EXTT0=
EXTT1=
EXTT2=
EXTT3=
EXTT4=
EXTT5=
EXTT6=
EXTT7=
EXTT8=
EXTT9=
EXTT10=
EXTT11=
EXTT12=
PLAYORDER=
